<?xml version="1.0" encoding="iso-8859-1"?>
<!-- Uploaded to: SVG Repo, www.svgrepo.com, Generator: SVG Repo Mixer Tools -->
<svg fill="#000000" height="800px" width="800px" version="1.1" id="Layer_1" xmlns="http://www.w3.org/2000/svg" xmlns:xlink="http://www.w3.org/1999/xlink" 
	 viewBox="0 0 512.008 512.008" xml:space="preserve">
<g>
	<g>
		<path d="M501.341,119.5c-18.133-16.533-61.653-21.76-129.387-15.253c-35.84,3.413-71.893,0.96-106.88-7.253
			C218.248,85.9,158.941,74.487,115.421,85.26C29.128,106.7-9.379,255.394,1.928,348.407c6.4,52.587,28.053,82.667,59.307,82.667
			c82.773,0,190.4-33.6,247.36-127.253c74.773-3.52,203.413-68.8,203.413-160.747C512.008,134.007,508.168,125.367,501.341,119.5z
			 M302.514,282.594c-0.533-0.32-1.067-0.533-1.707-0.747c-10.987-2.24-12.587-8.64-12.8-10.88v-0.213
			c0-4.267-2.56-8.213-6.507-9.813c-7.68-2.88-14.933,2.773-14.827,10.027c0,7.36,4.48,21.013,19.413,28.16
			c-53.76,81.173-153.28,110.507-224.853,110.507c-28.053,0-36.267-48.96-38.08-63.893c-10.24-83.307,23.467-221.44,97.493-239.893
			c11.52-2.667,23.36-3.947,35.307-3.733c33.6,0,72,7.893,104.32,15.573c12.267,2.773,24.64,4.907,37.227,6.4
			c-4.373,4.693-7.467,10.453-9.067,16.747c-1.493,6.613,3.627,13.227,10.987,13.013c4.8-0.213,8.853-3.733,9.813-8.427
			c0-0.107,0-0.107,0-0.213s2.347-9.493,14.187-13.44c2.667-0.853,4.907-2.773,6.187-5.333c14.827,0.533,29.653,0.213,44.48-1.173
			c83.52-7.893,106.88,4.267,113.067,9.92c2.347,1.92,3.627,4.8,3.627,7.787C490.674,222.22,365.234,282.594,302.514,282.594z"/>
	</g>
</g>
</svg>